<mxfile host="Electron" agent="Mozilla/5.0 (X11; Linux x86_64) AppleWebKit/537.36 (KHTML, like Gecko) draw.io/25.0.2 Chrome/128.0.6613.186 Electron/32.2.7 Safari/537.36" version="25.0.2">
  <diagram name="Page-1" id="3AEyisqIqyRekat88IwF">
    <mxGraphModel dx="637" dy="587" grid="1" gridSize="10" guides="1" tooltips="1" connect="1" arrows="1" fold="1" page="1" pageScale="1" pageWidth="850" pageHeight="1100" math="0" shadow="0">
      <root>
        <mxCell id="0" />
        <mxCell id="1" parent="0" />
        <mxCell id="RW_EFl4ua5fI-EQTaZHF-38" value="" style="endArrow=none;html=1;rounded=0;strokeWidth=3;" edge="1" parent="1" target="RW_EFl4ua5fI-EQTaZHF-36">
          <mxGeometry width="50" height="50" relative="1" as="geometry">
            <mxPoint x="240" y="285" as="sourcePoint" />
            <mxPoint x="760" y="285" as="targetPoint" />
          </mxGeometry>
        </mxCell>
        <mxCell id="RW_EFl4ua5fI-EQTaZHF-36" value="" style="ellipse;whiteSpace=wrap;html=1;aspect=fixed;fillColor=#dae8fc;strokeColor=#6c8ebf;" vertex="1" parent="1">
          <mxGeometry x="210" y="275" width="20" height="20" as="geometry" />
        </mxCell>
        <mxCell id="RW_EFl4ua5fI-EQTaZHF-39" value="master" style="text;html=1;align=right;verticalAlign=middle;whiteSpace=wrap;rounded=0;" vertex="1" parent="1">
          <mxGeometry x="140" y="270" width="60" height="30" as="geometry" />
        </mxCell>
        <mxCell id="RW_EFl4ua5fI-EQTaZHF-67" value="" style="endArrow=none;html=1;rounded=0;strokeWidth=3;" edge="1" parent="1" source="RW_EFl4ua5fI-EQTaZHF-36" target="RW_EFl4ua5fI-EQTaZHF-66">
          <mxGeometry width="50" height="50" relative="1" as="geometry">
            <mxPoint x="230" y="285" as="sourcePoint" />
            <mxPoint x="760" y="285" as="targetPoint" />
          </mxGeometry>
        </mxCell>
        <mxCell id="RW_EFl4ua5fI-EQTaZHF-170" style="edgeStyle=orthogonalEdgeStyle;rounded=0;orthogonalLoop=1;jettySize=auto;html=1;exitX=0.5;exitY=0;exitDx=0;exitDy=0;entryX=0;entryY=0.5;entryDx=0;entryDy=0;curved=1;strokeWidth=3;" edge="1" parent="1" source="RW_EFl4ua5fI-EQTaZHF-66" target="RW_EFl4ua5fI-EQTaZHF-148">
          <mxGeometry relative="1" as="geometry" />
        </mxCell>
        <mxCell id="RW_EFl4ua5fI-EQTaZHF-66" value="" style="ellipse;whiteSpace=wrap;html=1;aspect=fixed;fillColor=#dae8fc;strokeColor=#6c8ebf;" vertex="1" parent="1">
          <mxGeometry x="290" y="275" width="20" height="20" as="geometry" />
        </mxCell>
        <mxCell id="RW_EFl4ua5fI-EQTaZHF-119" value="" style="endArrow=none;html=1;rounded=0;strokeWidth=3;" edge="1" parent="1" source="RW_EFl4ua5fI-EQTaZHF-192" target="RW_EFl4ua5fI-EQTaZHF-118">
          <mxGeometry width="50" height="50" relative="1" as="geometry">
            <mxPoint x="340" y="285" as="sourcePoint" />
            <mxPoint x="760" y="285" as="targetPoint" />
          </mxGeometry>
        </mxCell>
        <mxCell id="RW_EFl4ua5fI-EQTaZHF-118" value="" style="ellipse;whiteSpace=wrap;html=1;aspect=fixed;fillColor=#dae8fc;strokeColor=#6c8ebf;" vertex="1" parent="1">
          <mxGeometry x="595" y="275" width="20" height="20" as="geometry" />
        </mxCell>
        <mxCell id="RW_EFl4ua5fI-EQTaZHF-148" value="" style="ellipse;whiteSpace=wrap;html=1;aspect=fixed;fillColor=#fff2cc;strokeColor=#d6b656;" vertex="1" parent="1">
          <mxGeometry x="345" y="140" width="20" height="20" as="geometry" />
        </mxCell>
        <mxCell id="RW_EFl4ua5fI-EQTaZHF-176" style="edgeStyle=orthogonalEdgeStyle;rounded=0;orthogonalLoop=1;jettySize=auto;html=1;exitX=1;exitY=0.5;exitDx=0;exitDy=0;entryX=0;entryY=0.5;entryDx=0;entryDy=0;dashed=1;dashPattern=1 1;" edge="1" parent="1" target="RW_EFl4ua5fI-EQTaZHF-148">
          <mxGeometry relative="1" as="geometry">
            <mxPoint x="200" y="150" as="sourcePoint" />
          </mxGeometry>
        </mxCell>
        <mxCell id="RW_EFl4ua5fI-EQTaZHF-149" value="try_something" style="text;html=1;align=right;verticalAlign=middle;whiteSpace=wrap;rounded=0;" vertex="1" parent="1">
          <mxGeometry x="140" y="135" width="60" height="30" as="geometry" />
        </mxCell>
        <mxCell id="RW_EFl4ua5fI-EQTaZHF-150" value="" style="endArrow=none;html=1;rounded=0;strokeWidth=3;" edge="1" parent="1" source="RW_EFl4ua5fI-EQTaZHF-153" target="RW_EFl4ua5fI-EQTaZHF-151">
          <mxGeometry width="50" height="50" relative="1" as="geometry">
            <mxPoint x="365" y="150" as="sourcePoint" />
            <mxPoint x="835" y="150" as="targetPoint" />
          </mxGeometry>
        </mxCell>
        <mxCell id="RW_EFl4ua5fI-EQTaZHF-151" value="" style="ellipse;whiteSpace=wrap;html=1;aspect=fixed;fillColor=#fff2cc;strokeColor=#d6b656;" vertex="1" parent="1">
          <mxGeometry x="445" y="140" width="20" height="20" as="geometry" />
        </mxCell>
        <mxCell id="RW_EFl4ua5fI-EQTaZHF-152" value="" style="endArrow=none;html=1;rounded=0;strokeWidth=3;" edge="1" parent="1" source="RW_EFl4ua5fI-EQTaZHF-148" target="RW_EFl4ua5fI-EQTaZHF-153">
          <mxGeometry width="50" height="50" relative="1" as="geometry">
            <mxPoint x="365" y="150" as="sourcePoint" />
            <mxPoint x="445" y="150" as="targetPoint" />
          </mxGeometry>
        </mxCell>
        <mxCell id="RW_EFl4ua5fI-EQTaZHF-153" value="" style="ellipse;whiteSpace=wrap;html=1;aspect=fixed;fillColor=#fff2cc;strokeColor=#d6b656;" vertex="1" parent="1">
          <mxGeometry x="415" y="140" width="20" height="20" as="geometry" />
        </mxCell>
        <mxCell id="RW_EFl4ua5fI-EQTaZHF-154" value="" style="endArrow=none;html=1;rounded=0;strokeWidth=3;" edge="1" parent="1" source="RW_EFl4ua5fI-EQTaZHF-151" target="RW_EFl4ua5fI-EQTaZHF-155">
          <mxGeometry width="50" height="50" relative="1" as="geometry">
            <mxPoint x="465" y="150" as="sourcePoint" />
            <mxPoint x="835" y="150" as="targetPoint" />
          </mxGeometry>
        </mxCell>
        <mxCell id="RW_EFl4ua5fI-EQTaZHF-155" value="" style="ellipse;whiteSpace=wrap;html=1;aspect=fixed;fillColor=#fff2cc;strokeColor=#d6b656;" vertex="1" parent="1">
          <mxGeometry x="485" y="140" width="20" height="20" as="geometry" />
        </mxCell>
        <mxCell id="RW_EFl4ua5fI-EQTaZHF-160" value="" style="ellipse;whiteSpace=wrap;html=1;aspect=fixed;fillColor=#fff2cc;strokeColor=#d6b656;" vertex="1" parent="1">
          <mxGeometry x="455" y="195" width="20" height="20" as="geometry" />
        </mxCell>
        <mxCell id="RW_EFl4ua5fI-EQTaZHF-177" style="edgeStyle=orthogonalEdgeStyle;rounded=0;orthogonalLoop=1;jettySize=auto;html=1;exitX=1;exitY=0.5;exitDx=0;exitDy=0;dashed=1;dashPattern=1 1;" edge="1" parent="1" source="RW_EFl4ua5fI-EQTaZHF-161">
          <mxGeometry relative="1" as="geometry">
            <mxPoint x="450" y="205" as="targetPoint" />
          </mxGeometry>
        </mxCell>
        <mxCell id="RW_EFl4ua5fI-EQTaZHF-161" value="try_something_2" style="text;html=1;align=right;verticalAlign=middle;whiteSpace=wrap;rounded=0;" vertex="1" parent="1">
          <mxGeometry x="140" y="190" width="60" height="30" as="geometry" />
        </mxCell>
        <mxCell id="RW_EFl4ua5fI-EQTaZHF-172" style="edgeStyle=orthogonalEdgeStyle;rounded=0;orthogonalLoop=1;jettySize=auto;html=1;exitX=1;exitY=0.5;exitDx=0;exitDy=0;entryX=0;entryY=0.5;entryDx=0;entryDy=0;endArrow=none;endFill=0;strokeWidth=3;" edge="1" parent="1" source="RW_EFl4ua5fI-EQTaZHF-163" target="RW_EFl4ua5fI-EQTaZHF-167">
          <mxGeometry relative="1" as="geometry" />
        </mxCell>
        <mxCell id="RW_EFl4ua5fI-EQTaZHF-163" value="" style="ellipse;whiteSpace=wrap;html=1;aspect=fixed;fillColor=#fff2cc;strokeColor=#d6b656;" vertex="1" parent="1">
          <mxGeometry x="555" y="195" width="20" height="20" as="geometry" />
        </mxCell>
        <mxCell id="RW_EFl4ua5fI-EQTaZHF-164" value="" style="endArrow=none;html=1;rounded=0;strokeWidth=3;" edge="1" parent="1">
          <mxGeometry width="50" height="50" relative="1" as="geometry">
            <mxPoint x="475" y="204.66" as="sourcePoint" />
            <mxPoint x="525" y="204.66" as="targetPoint" />
          </mxGeometry>
        </mxCell>
        <mxCell id="RW_EFl4ua5fI-EQTaZHF-171" style="edgeStyle=orthogonalEdgeStyle;rounded=0;orthogonalLoop=1;jettySize=auto;html=1;exitX=1;exitY=0.5;exitDx=0;exitDy=0;entryX=0;entryY=0.5;entryDx=0;entryDy=0;endArrow=none;endFill=0;strokeWidth=3;" edge="1" parent="1" source="RW_EFl4ua5fI-EQTaZHF-165" target="RW_EFl4ua5fI-EQTaZHF-163">
          <mxGeometry relative="1" as="geometry" />
        </mxCell>
        <mxCell id="RW_EFl4ua5fI-EQTaZHF-165" value="" style="ellipse;whiteSpace=wrap;html=1;aspect=fixed;fillColor=#fff2cc;strokeColor=#d6b656;" vertex="1" parent="1">
          <mxGeometry x="525" y="195" width="20" height="20" as="geometry" />
        </mxCell>
        <mxCell id="RW_EFl4ua5fI-EQTaZHF-178" style="edgeStyle=orthogonalEdgeStyle;rounded=0;orthogonalLoop=1;jettySize=auto;html=1;exitX=0.5;exitY=1;exitDx=0;exitDy=0;strokeWidth=3;dashed=1;" edge="1" parent="1" source="RW_EFl4ua5fI-EQTaZHF-167" target="RW_EFl4ua5fI-EQTaZHF-118">
          <mxGeometry relative="1" as="geometry" />
        </mxCell>
        <mxCell id="RW_EFl4ua5fI-EQTaZHF-167" value="" style="ellipse;whiteSpace=wrap;html=1;aspect=fixed;fillColor=#fff2cc;strokeColor=#d6b656;" vertex="1" parent="1">
          <mxGeometry x="595" y="195" width="20" height="20" as="geometry" />
        </mxCell>
        <mxCell id="RW_EFl4ua5fI-EQTaZHF-169" value="" style="endArrow=none;html=1;rounded=0;strokeWidth=3;" edge="1" parent="1" source="RW_EFl4ua5fI-EQTaZHF-66" target="RW_EFl4ua5fI-EQTaZHF-168">
          <mxGeometry width="50" height="50" relative="1" as="geometry">
            <mxPoint x="340" y="285" as="sourcePoint" />
            <mxPoint x="590" y="285" as="targetPoint" />
          </mxGeometry>
        </mxCell>
        <mxCell id="RW_EFl4ua5fI-EQTaZHF-175" style="edgeStyle=orthogonalEdgeStyle;rounded=0;orthogonalLoop=1;jettySize=auto;html=1;exitX=0.5;exitY=0;exitDx=0;exitDy=0;entryX=0;entryY=0.5;entryDx=0;entryDy=0;curved=1;strokeWidth=3;" edge="1" parent="1" source="RW_EFl4ua5fI-EQTaZHF-168" target="RW_EFl4ua5fI-EQTaZHF-160">
          <mxGeometry relative="1" as="geometry" />
        </mxCell>
        <mxCell id="RW_EFl4ua5fI-EQTaZHF-168" value="" style="ellipse;whiteSpace=wrap;html=1;aspect=fixed;fillColor=#dae8fc;strokeColor=#6c8ebf;" vertex="1" parent="1">
          <mxGeometry x="360" y="275" width="20" height="20" as="geometry" />
        </mxCell>
        <mxCell id="RW_EFl4ua5fI-EQTaZHF-180" value="" style="ellipse;whiteSpace=wrap;html=1;aspect=fixed;fillColor=#fff2cc;strokeColor=#d6b656;" vertex="1" parent="1">
          <mxGeometry x="395" y="330" width="20" height="20" as="geometry" />
        </mxCell>
        <mxCell id="RW_EFl4ua5fI-EQTaZHF-181" style="edgeStyle=orthogonalEdgeStyle;rounded=0;orthogonalLoop=1;jettySize=auto;html=1;exitX=1;exitY=0.5;exitDx=0;exitDy=0;entryX=0;entryY=0.5;entryDx=0;entryDy=0;dashed=1;dashPattern=1 1;endArrow=none;endFill=0;" edge="1" parent="1" target="RW_EFl4ua5fI-EQTaZHF-180">
          <mxGeometry relative="1" as="geometry">
            <mxPoint x="200" y="340" as="sourcePoint" />
          </mxGeometry>
        </mxCell>
        <mxCell id="RW_EFl4ua5fI-EQTaZHF-182" value="" style="endArrow=none;html=1;rounded=0;strokeWidth=3;" edge="1" parent="1" source="RW_EFl4ua5fI-EQTaZHF-185" target="RW_EFl4ua5fI-EQTaZHF-183">
          <mxGeometry width="50" height="50" relative="1" as="geometry">
            <mxPoint x="415" y="340" as="sourcePoint" />
            <mxPoint x="885" y="340" as="targetPoint" />
          </mxGeometry>
        </mxCell>
        <mxCell id="RW_EFl4ua5fI-EQTaZHF-183" value="" style="ellipse;whiteSpace=wrap;html=1;aspect=fixed;fillColor=#fff2cc;strokeColor=#d6b656;" vertex="1" parent="1">
          <mxGeometry x="495" y="330" width="20" height="20" as="geometry" />
        </mxCell>
        <mxCell id="RW_EFl4ua5fI-EQTaZHF-184" value="" style="endArrow=none;html=1;rounded=0;strokeWidth=3;" edge="1" parent="1" source="RW_EFl4ua5fI-EQTaZHF-180" target="RW_EFl4ua5fI-EQTaZHF-185">
          <mxGeometry width="50" height="50" relative="1" as="geometry">
            <mxPoint x="415" y="340" as="sourcePoint" />
            <mxPoint x="495" y="340" as="targetPoint" />
          </mxGeometry>
        </mxCell>
        <mxCell id="RW_EFl4ua5fI-EQTaZHF-185" value="" style="ellipse;whiteSpace=wrap;html=1;aspect=fixed;fillColor=#fff2cc;strokeColor=#d6b656;" vertex="1" parent="1">
          <mxGeometry x="465" y="330" width="20" height="20" as="geometry" />
        </mxCell>
        <mxCell id="RW_EFl4ua5fI-EQTaZHF-186" value="" style="endArrow=none;html=1;rounded=0;strokeWidth=3;" edge="1" parent="1" source="RW_EFl4ua5fI-EQTaZHF-183" target="RW_EFl4ua5fI-EQTaZHF-187">
          <mxGeometry width="50" height="50" relative="1" as="geometry">
            <mxPoint x="515" y="340" as="sourcePoint" />
            <mxPoint x="885" y="340" as="targetPoint" />
          </mxGeometry>
        </mxCell>
        <mxCell id="RW_EFl4ua5fI-EQTaZHF-195" style="edgeStyle=orthogonalEdgeStyle;rounded=0;orthogonalLoop=1;jettySize=auto;html=1;exitX=0.5;exitY=0;exitDx=0;exitDy=0;entryX=0.5;entryY=1;entryDx=0;entryDy=0;strokeWidth=3;dashed=1;" edge="1" parent="1" source="RW_EFl4ua5fI-EQTaZHF-187" target="RW_EFl4ua5fI-EQTaZHF-192">
          <mxGeometry relative="1" as="geometry" />
        </mxCell>
        <mxCell id="RW_EFl4ua5fI-EQTaZHF-187" value="" style="ellipse;whiteSpace=wrap;html=1;aspect=fixed;fillColor=#fff2cc;strokeColor=#d6b656;" vertex="1" parent="1">
          <mxGeometry x="535" y="330" width="20" height="20" as="geometry" />
        </mxCell>
        <mxCell id="RW_EFl4ua5fI-EQTaZHF-188" value="feature_x" style="text;html=1;align=right;verticalAlign=middle;whiteSpace=wrap;rounded=0;" vertex="1" parent="1">
          <mxGeometry x="140" y="325" width="60" height="30" as="geometry" />
        </mxCell>
        <mxCell id="RW_EFl4ua5fI-EQTaZHF-190" value="" style="endArrow=none;html=1;rounded=0;strokeWidth=3;" edge="1" parent="1" source="RW_EFl4ua5fI-EQTaZHF-168" target="RW_EFl4ua5fI-EQTaZHF-189">
          <mxGeometry width="50" height="50" relative="1" as="geometry">
            <mxPoint x="380" y="285" as="sourcePoint" />
            <mxPoint x="595" y="285" as="targetPoint" />
          </mxGeometry>
        </mxCell>
        <mxCell id="RW_EFl4ua5fI-EQTaZHF-191" style="edgeStyle=orthogonalEdgeStyle;rounded=0;orthogonalLoop=1;jettySize=auto;html=1;exitX=0.5;exitY=1;exitDx=0;exitDy=0;entryX=0.5;entryY=0;entryDx=0;entryDy=0;strokeWidth=3;" edge="1" parent="1" source="RW_EFl4ua5fI-EQTaZHF-189" target="RW_EFl4ua5fI-EQTaZHF-180">
          <mxGeometry relative="1" as="geometry" />
        </mxCell>
        <mxCell id="RW_EFl4ua5fI-EQTaZHF-189" value="" style="ellipse;whiteSpace=wrap;html=1;aspect=fixed;fillColor=#dae8fc;strokeColor=#6c8ebf;" vertex="1" parent="1">
          <mxGeometry x="395" y="275" width="20" height="20" as="geometry" />
        </mxCell>
        <mxCell id="RW_EFl4ua5fI-EQTaZHF-194" value="" style="endArrow=none;html=1;rounded=0;strokeWidth=3;" edge="1" parent="1" source="RW_EFl4ua5fI-EQTaZHF-189" target="RW_EFl4ua5fI-EQTaZHF-192">
          <mxGeometry width="50" height="50" relative="1" as="geometry">
            <mxPoint x="415" y="285" as="sourcePoint" />
            <mxPoint x="595" y="285" as="targetPoint" />
          </mxGeometry>
        </mxCell>
        <mxCell id="RW_EFl4ua5fI-EQTaZHF-192" value="" style="ellipse;whiteSpace=wrap;html=1;aspect=fixed;fillColor=#dae8fc;strokeColor=#6c8ebf;" vertex="1" parent="1">
          <mxGeometry x="535" y="275" width="20" height="20" as="geometry" />
        </mxCell>
      </root>
    </mxGraphModel>
  </diagram>
</mxfile>
